<svg width="202" height="204" viewBox="0 0 202 204" fill="none" xmlns="http://www.w3.org/2000/svg">
<path d="M50.3002 137.2V147.2H47.5002V139.6H44.0002V147.2H41.2002V137.2H50.3002Z" fill="#272525"/>
<path d="M54.2998 150.2V137.2H57.0998V138.6C57.8998 137.5 58.8998 137 60.1998 137C61.3998 137 62.4998 137.5 63.3998 138.4C64.2998 139.3 64.6998 140.6 64.6998 142.2C64.6998 143.8 64.2998 145.1 63.3998 146C62.4998 146.9 61.3998 147.4 60.1998 147.4C58.9998 147.4 57.8998 146.9 57.0998 145.9V150.2H54.2998ZM57.7998 144.2C58.2998 144.7 58.7998 145 59.4998 145C60.1998 145 60.7998 144.7 61.1998 144.2C61.6998 143.7 61.8998 143 61.8998 142.2C61.8998 141.4 61.6998 140.7 61.1998 140.2C60.6998 139.7 60.0998 139.4 59.4998 139.4C58.7998 139.4 58.1998 139.7 57.7998 140.2C57.2998 140.7 57.0998 141.4 57.0998 142.2C57.0998 143 57.2998 143.7 57.7998 144.2Z" fill="#272525"/>
<path d="M77.0998 145.9C76.0998 146.9 74.7998 147.4 73.1998 147.4C71.6998 147.4 70.3998 146.9 69.2998 145.9C68.2998 144.9 67.7998 143.7 67.7998 142.2C67.7998 140.7 68.2998 139.5 69.3998 138.5C70.3998 137.5 71.6998 137 73.2998 137C74.7998 137 76.0998 137.5 77.1998 138.5C78.1998 139.5 78.6998 140.7 78.6998 142.2C78.6998 143.7 78.0998 144.9 77.0998 145.9ZM73.2998 145C74.0998 145 74.6998 144.7 75.1998 144.2C75.6998 143.7 75.8998 143 75.8998 142.2C75.8998 141.4 75.6998 140.8 75.1998 140.2C74.6998 139.7 74.0998 139.4 73.2998 139.4C72.4998 139.4 71.8998 139.7 71.3998 140.2C70.8998 140.7 70.6998 141.4 70.6998 142.2C70.6998 143 70.8998 143.6 71.3998 144.2C71.7998 144.7 72.4998 145 73.2998 145Z" fill="#272525"/>
<path d="M90.7002 150.2H87.8002V146.5C87.6002 146.7 87.3002 146.9 86.9002 147.1C86.5002 147.3 86.1002 147.3 85.7002 147.3C84.5002 147.3 83.5002 146.8 82.8002 145.9C82.1002 145 81.7002 143.7 81.7002 142.1C81.7002 140.5 82.1002 139.2 82.8002 138.3C83.5002 137.4 84.5002 136.9 85.8002 136.9C86.2002 136.9 86.6002 137 87.0002 137.2C87.4002 137.4 87.7002 137.6 87.9002 137.9V134H90.8002V137.9C91.0002 137.7 91.3002 137.4 91.7002 137.2C92.1002 137 92.5002 136.9 92.9002 136.9C94.1002 136.9 95.1002 137.4 95.9002 138.3C96.6002 139.2 97.0002 140.5 97.0002 142.1C97.0002 143.7 96.6002 145 95.9002 145.9C95.2002 146.8 94.2002 147.3 93.0002 147.3C92.6002 147.3 92.2002 147.2 91.8002 147.1C91.4002 146.9 91.1002 146.8 90.9002 146.5V150.2H90.7002ZM86.7002 139.4C86.0002 139.4 85.5002 139.7 85.1002 140.2C84.7002 140.7 84.5002 141.4 84.5002 142.2C84.5002 143.1 84.7002 143.7 85.1002 144.2C85.5002 144.7 86.0002 144.9 86.7002 144.9C87.1002 144.9 87.5002 144.8 87.9002 144.5V139.9C87.4002 139.6 87.0002 139.4 86.7002 139.4ZM91.9002 139.4C91.5002 139.4 91.1002 139.6 90.7002 139.9V144.5C91.1002 144.8 91.5002 144.9 91.9002 144.9C92.6002 144.9 93.1002 144.7 93.5002 144.2C93.9002 143.7 94.1002 143 94.1002 142.2C94.1002 141.4 93.9002 140.7 93.5002 140.2C93.1002 139.7 92.6002 139.4 91.9002 139.4Z" fill="#272525"/>
<path d="M105.2 147.4C103.7 147.4 102.4 146.9 101.4 145.9C100.4 144.9 99.9004 143.7 99.9004 142.1C99.9004 140.6 100.4 139.4 101.3 138.4C102.2 137.4 103.4 136.9 104.9 136.9C106.5 136.9 107.7 137.4 108.5 138.5C109.3 139.5 109.8 140.8 109.8 142.4C109.8 142.5 109.8 142.8 109.8 143.1H102.8C102.9 143.7 103.2 144.2 103.6 144.6C104 144.9 104.6 145.1 105.2 145.1C106.1 145.1 106.9 144.8 107.6 144.1L109.2 145.5C108.3 146.8 106.9 147.4 105.2 147.4ZM102.7 141.4H107C106.9 140.8 106.7 140.2 106.3 139.8C105.9 139.4 105.5 139.2 104.9 139.2C104.3 139.2 103.8 139.4 103.5 139.8C103.1 140.2 102.8 140.7 102.7 141.4Z" fill="#272525"/>
<path d="M118 147.4C116.5 147.4 115.3 146.9 114.3 145.9C113.3 144.9 112.8 143.7 112.8 142.2C112.8 140.8 113.3 139.5 114.3 138.5C115.3 137.5 116.6 137 118.1 137C119.7 137 121 137.6 122.1 138.8L120.4 140.5C119.7 139.8 118.9 139.5 118.1 139.5C117.4 139.5 116.8 139.8 116.4 140.3C115.9 140.8 115.7 141.5 115.7 142.3C115.7 143.1 115.9 143.7 116.4 144.3C116.9 144.8 117.5 145.1 118.2 145.1C119 145.1 119.8 144.7 120.5 144L122.2 145.7C121.7 146.3 121.1 146.8 120.4 147.1C119.7 147.3 119 147.4 118 147.4Z" fill="#272525"/>
<path d="M130.1 147.4C128.6 147.4 127.4 146.9 126.4 145.9C125.4 144.9 124.9 143.7 124.9 142.2C124.9 140.8 125.4 139.5 126.4 138.5C127.4 137.5 128.7 137 130.2 137C131.8 137 133.1 137.6 134.2 138.8L132.5 140.5C131.8 139.8 131 139.5 130.2 139.5C129.5 139.5 128.9 139.8 128.5 140.3C128 140.8 127.8 141.5 127.8 142.3C127.8 143.1 128 143.7 128.5 144.3C129 144.8 129.6 145.1 130.3 145.1C131.1 145.1 131.9 144.7 132.6 144L134.3 145.7C133.8 146.3 133.2 146.8 132.5 147.1C131.8 147.3 131.1 147.4 130.1 147.4Z" fill="#272525"/>
<path d="M146.8 137.2V147.2H144V141.4L140.1 147.2H137.4V137.2H140.2V143.1L144.1 137.2H146.8Z" fill="#272525"/>
<path d="M160.1 137.2V147.2H157.3V141.4L153.4 147.2H150.7V137.2H153.5V143.1L157.4 137.2H160.1Z" fill="#272525"/>
<path d="M47.5006 169.1C45.6006 169.1 44.1006 168.6 43.1006 167.6C42.1006 166.6 41.6006 165.1 41.6006 163.2C41.6006 162.5 41.6006 161.9 41.7006 161.4C41.8006 160.9 41.9006 160.3 42.1006 159.7C42.3006 159.1 42.5006 158.6 42.9006 158.2C43.2006 157.8 43.7006 157.4 44.3006 157.1C44.9006 156.8 45.6006 156.5 46.4006 156.4L52.4006 155.4L52.9006 157.6L46.7006 158.7C45.0006 159 44.1006 159.8 44.0006 161.1C44.3006 160.7 44.8006 160.3 45.5006 159.9C46.2006 159.5 47.1006 159.4 48.1006 159.4C49.6006 159.4 50.8006 159.9 51.9006 160.8C52.9006 161.7 53.5006 162.9 53.5006 164.2C53.5006 165.6 52.9006 166.8 51.8006 167.8C50.6006 168.6 49.2006 169.1 47.5006 169.1ZM47.5006 166.7C48.3006 166.7 48.9006 166.5 49.4006 166C49.9006 165.5 50.2006 164.9 50.2006 164.2C50.2006 163.5 49.9006 162.9 49.4006 162.3C48.9006 161.8 48.2006 161.5 47.4006 161.5C46.6006 161.5 46.0006 161.8 45.5006 162.3C45.0006 162.8 44.7006 163.4 44.7006 164.2C44.7006 164.9 45.0006 165.5 45.5006 166C46.1006 166.4 46.7006 166.7 47.5006 166.7Z" fill="#272525"/>
<path d="M59.9008 171.9C58.9008 171.9 58.0008 171.7 57.1008 171.2L58.2008 169.1C58.7008 169.4 59.1008 169.5 59.6008 169.5C60.1008 169.5 60.5008 169.3 60.7008 168.8L56.3008 158.7H59.7008L62.3008 165.5L64.8008 158.7H68.1008L63.8008 169C63.4008 170 62.9008 170.8 62.3008 171.2C61.6008 171.7 60.8008 171.9 59.9008 171.9Z" fill="#272525"/>
<path d="M80.1002 168.9H73.1002L72.9002 171.3H70.2002V166.5H71.4002C72.1002 165.1 72.5002 162.9 72.5002 159.8V158.9H81.7002V166.5H83.2002L82.8002 171.3H80.1002V168.9ZM74.6002 166.4H78.4002V161.2H75.4002V161.4C75.4002 163.7 75.1002 165.3 74.6002 166.4Z" fill="#272525"/>
<path d="M89.101 171.9C88.101 171.9 87.201 171.7 86.301 171.2L87.401 169.1C87.901 169.4 88.301 169.5 88.801 169.5C89.301 169.5 89.701 169.3 89.901 168.8L85.501 158.7H88.901L91.501 165.5L94.001 158.7H97.301L93.001 169C92.601 170 92.101 170.8 91.501 171.2C90.801 171.7 90.101 171.9 89.101 171.9Z" fill="#272525"/>
<path d="M115.801 168.9H100.601V158.9H103.801V166.5H107.401V158.9H110.601V166.5H114.201V158.9H117.401V166.5H118.901L118.501 171.3H115.801V168.9Z" fill="#272525"/>
<path d="M127.501 169.1C125.801 169.1 124.401 168.6 123.301 167.6C122.201 166.6 121.601 165.4 121.601 163.8C121.601 162.3 122.101 161.1 123.201 160.1C124.201 159.1 125.601 158.6 127.201 158.6C129.001 158.6 130.301 159.1 131.301 160.2C132.201 161.2 132.701 162.5 132.701 164.1C132.701 164.2 132.701 164.5 132.701 164.8H124.901C125.101 165.4 125.401 165.9 125.801 166.3C126.201 166.7 126.901 166.8 127.601 166.8C128.601 166.8 129.501 166.5 130.301 165.8L132.101 167.2C130.901 168.5 129.401 169.1 127.501 169.1ZM124.701 163.1H129.501C129.401 162.5 129.101 161.9 128.701 161.5C128.301 161.1 127.801 160.9 127.101 160.9C126.501 160.9 125.901 161.1 125.501 161.5C125.101 161.9 124.901 162.4 124.701 163.1Z" fill="#272525"/>
<path d="M144.801 161.3H139.801V168.9H136.601V158.9H144.801V161.3Z" fill="#272525"/>
<path d="M157.901 167.6C156.701 168.6 155.301 169.1 153.601 169.1C151.901 169.1 150.401 168.6 149.301 167.6C148.101 166.6 147.601 165.4 147.601 163.9C147.601 162.4 148.201 161.2 149.301 160.2C150.501 159.2 151.901 158.7 153.601 158.7C155.301 158.7 156.801 159.2 157.901 160.2C159.101 161.2 159.601 162.4 159.601 163.9C159.701 165.3 159.101 166.6 157.901 167.6ZM153.601 166.7C154.501 166.7 155.201 166.4 155.701 165.9C156.201 165.4 156.501 164.7 156.501 163.9C156.501 163.1 156.201 162.5 155.701 161.9C155.101 161.4 154.401 161.1 153.601 161.1C152.701 161.1 152.001 161.4 151.501 161.9C151.001 162.4 150.701 163.1 150.701 163.9C150.701 164.7 151.001 165.3 151.501 165.9C152.101 166.4 152.801 166.7 153.601 166.7Z" fill="#272525"/>
<path d="M107.2 38.8C106.7 38.5 106.4 38.3 106 38.1C103 36.4 100 34.7 97.1 32.9C96.4 32.5 95.9 32.5 95.2 32.9C89.4 36.3 83.6 39.7 77.7 43C77 43.4 76.8 43.9 76.8 44.7C76.8 54.9 76.8 65 76.8 75.2C76.8 75.6 76.6 76.1 76.3 76.4C75.4 77.4 75.3 78.9 76.3 79.8C77.2 80.7 78.7 80.7 79.6 79.8C80.6 78.8 80.6 77.3 79.6 76.4C79.1 76 79 75.6 79 75C79 68.7 79 62.4 79 56.1C79 55.3 79.3 54.9 79.9 54.6C86.9 50.6 93.9 46.5 100.9 42.4C102.9 41.3 105 40.1 107.2 38.8ZM135.7 62.8C135.8 62.6 135.8 62.5 135.8 62.4C135.8 58.4 135.8 54.5 135.8 50.5C135.8 50.2 135.5 49.8 135.2 49.6C129.3 46.2 123.3 42.7 117.4 39.3C116.9 39 116.5 38.9 116 39.3C107.7 44.1 99.4 48.9 91 53.7C89.8 54.4 88.6 55.3 87 54.9C85.9 54.7 84.9 55.8 84.8 57C84.7 58.2 85.6 59.3 86.8 59.5C87.9 59.7 89.3 58.9 89.4 57.8C89.5 57 90 56.7 90.5 56.4C95.9 53.3 101.3 50.2 106.6 47.1C107.3 46.7 107.8 46.7 108.4 47.1C115.7 51.3 123.1 55.6 130.4 59.8C132.2 60.8 133.9 61.8 135.7 62.8ZM72.1 51.6C71.8 51.7 71.6 51.7 71.6 51.8C68.2 53.8 64.8 55.7 61.5 57.7C61.2 57.9 61 58.3 61 58.7C61 65.7 61 72.6 61 79.6C61 80.1 61.2 80.4 61.6 80.7C62.9 81.4 64.1 82.2 65.4 82.9C73.1 87.3 80.7 91.7 88.4 96.2C88.7 96.4 89.1 96.8 89.2 97.2C89.5 98.5 90.8 99.4 92 99.1C93.3 98.8 94.1 97.5 93.8 96.2C93.5 94.9 92.2 94.1 90.9 94.5C90.2 94.7 89.8 94.6 89.3 94.3C83.8 91.1 78.4 88 72.9 84.8C72.4 84.5 72.2 84.1 72.2 83.5C72.2 74.9 72.2 66.4 72.2 57.8C72.1 55.7 72.1 53.7 72.1 51.6ZM129.3 99.6C129.5 99.5 129.6 99.5 129.7 99.5C133.1 97.5 136.5 95.5 139.9 93.5C140.1 93.4 140.3 93 140.3 92.7C140.3 85.8 140.3 78.9 140.3 72C140.3 71.3 140.1 71 139.5 70.6C130.7 65.5 121.9 60.4 113.1 55.3C112.6 55 112.2 54.7 112.1 54C111.9 52.8 110.4 52 109.2 52.4C107.9 52.8 107.2 53.9 107.6 55.3C107.9 56.6 109.1 57.3 110.4 56.9C111 56.7 111.4 56.8 111.9 57.1C117.4 60.2 122.8 63.4 128.3 66.5C129 66.9 129.2 67.3 129.2 68C129.2 78.1 129.3 88.2 129.3 98.3C129.3 98.8 129.3 99.2 129.3 99.6ZM94.2 112.5C94.4 112.6 94.5 112.7 94.6 112.8C98 114.7 101.4 116.7 104.7 118.7C105.2 119 105.5 118.8 105.9 118.6C111.8 115.2 117.7 111.8 123.6 108.4C124.2 108 124.4 107.7 124.4 106.9C124.4 98.1 124.4 89.4 124.4 80.6C124.4 79.1 124.4 77.6 124.4 76.1C124.4 75.8 124.6 75.3 124.8 75.1C125.8 74.1 126 72.7 125 71.6C124.1 70.6 122.6 70.6 121.6 71.5C120.6 72.4 120.7 73.9 121.7 74.9C122 75.2 122.2 75.7 122.2 76.1C122.3 77.5 122.2 79 122.2 80.4C122.2 85.4 122.2 90.5 122.2 95.5C122.2 95.8 121.9 96.3 121.7 96.5C115.6 100.1 109.5 103.7 103.3 107.2C100.3 108.9 97.3 110.7 94.2 112.5ZM65.7 88.5C65.6 88.7 65.6 88.8 65.6 88.9C65.6 92.9 65.6 96.8 65.6 100.8C65.6 101.1 65.9 101.5 66.2 101.6C72.2 105.1 78.2 108.5 84.2 112C84.7 112.3 85.1 112.2 85.6 111.9C94.3 106.9 103.1 101.8 111.8 96.8C112.5 96.4 113 96.2 113.8 96.4C115.1 96.8 116.3 95.9 116.5 94.5C116.8 93.2 116 92 114.7 91.8C113.4 91.5 112.2 92.3 111.9 93.6C111.8 94 111.5 94.4 111.2 94.6C105.7 97.8 100.1 101.1 94.6 104.3C94.1 104.6 93.7 104.6 93.2 104.3C85.9 100.1 78.5 95.8 71.2 91.6C69.3 90.6 67.5 89.6 65.7 88.5Z" fill="#E44621"/>
<path d="M107.201 38.8C105.001 40.1 103.001 41.3 100.901 42.4C93.9009 46.5 86.9009 50.5 79.9009 54.6C79.3009 55 79.0009 55.3 79.0009 56.1C79.0009 62.4 79.0009 68.7 79.0009 75C79.0009 75.6 79.1009 76 79.6009 76.4C80.6009 77.3 80.6009 78.8 79.6009 79.8C78.7009 80.7 77.2009 80.7 76.3009 79.8C75.3009 78.9 75.4009 77.4 76.3009 76.4C76.6009 76.1 76.8009 75.6 76.8009 75.2C76.8009 65 76.8009 54.9 76.8009 44.7C76.8009 43.9 77.0009 43.4 77.7009 43C83.5009 39.7 89.4009 36.3 95.2009 32.9C95.9009 32.5 96.4009 32.5 97.1009 32.9C100.101 34.7 103.001 36.4 106.001 38.1C106.301 38.3 106.701 38.5 107.201 38.8Z" fill="#E44621"/>
<path d="M135.7 62.8C133.9 61.8 132.2 60.8 130.5 59.9C123.2 55.7 115.8 51.4 108.5 47.2C107.8 46.8 107.3 46.8 106.7 47.2C101.3 50.3 96.0004 53.4 90.6004 56.5C90.0004 56.8 89.6004 57.1 89.5004 57.9C89.3004 59 88.0004 59.7 86.9004 59.6C85.7004 59.4 84.9004 58.3 84.9004 57.1C85.0004 55.9 86.0004 54.8 87.1004 55C88.8004 55.3 89.9004 54.5 91.1004 53.8C99.4004 49 107.7 44.2 116.1 39.4C116.6 39.1 117 39.2 117.5 39.4C123.4 42.8 129.4 46.2 135.3 49.7C135.6 49.9 135.9 50.3 135.9 50.6C135.9 54.6 135.9 58.5 135.9 62.5C135.8 62.5 135.8 62.6 135.7 62.8Z" fill="#E44621"/>
<path d="M72.1004 51.6C72.1004 53.7 72.1004 55.7 72.1004 57.7C72.1004 66.3 72.1004 74.8 72.1004 83.4C72.1004 84 72.3004 84.4 72.8004 84.7C78.3004 87.8 83.8004 91 89.2004 94.2C89.7004 94.5 90.2004 94.7 90.8004 94.4C92.0004 94 93.4004 94.8 93.7004 96.1C94.0004 97.4 93.2004 98.7 91.9004 99C90.7004 99.3 89.4004 98.4 89.1004 97.1C89.0004 96.7 88.7004 96.3 88.3004 96.1C80.7004 91.7 73.0004 87.2 65.3004 82.8C64.0004 82.1 62.8004 81.3 61.5004 80.6C61.1004 80.4 60.9004 80.1 60.9004 79.5C60.9004 72.5 60.9004 65.6 60.9004 58.6C60.9004 58.3 61.1004 57.8 61.4004 57.6C64.8004 55.6 68.1004 53.7 71.5004 51.7C71.6004 51.7 71.8004 51.7 72.1004 51.6Z" fill="#E44621"/>
<path d="M129.301 99.6C129.301 99.1 129.301 98.8 129.301 98.4C129.301 88.3 129.201 78.2 129.201 68.1C129.201 67.4 129.001 66.9 128.301 66.6C122.801 63.5 117.401 60.4 111.901 57.2C111.401 56.9 111.001 56.8 110.401 57C109.101 57.4 108.001 56.7 107.601 55.4C107.201 54 107.901 52.9 109.201 52.5C110.401 52.2 111.801 52.9 112.101 54.1C112.201 54.8 112.601 55.1 113.101 55.4C121.901 60.5 130.701 65.6 139.501 70.7C140.101 71 140.301 71.4 140.301 72.1C140.301 79 140.301 85.9 140.301 92.8C140.301 93.1 140.201 93.5 139.901 93.6C136.501 95.6 133.101 97.6 129.701 99.6C129.601 99.6 129.501 99.6 129.301 99.6Z" fill="#E44621"/>
<path d="M94.2002 112.5C97.3002 110.7 100.4 108.9 103.4 107.2C109.5 103.6 115.7 100.1 121.8 96.5C122.1 96.3 122.3 95.8 122.3 95.5C122.3 90.5 122.3 85.4 122.3 80.4C122.3 79 122.3 77.5 122.3 76.1C122.3 75.7 122.1 75.2 121.8 74.9C120.8 73.9 120.8 72.4 121.7 71.5C122.7 70.5 124.2 70.6 125.1 71.6C126 72.6 125.9 74.1 124.9 75.1C124.7 75.3 124.5 75.8 124.5 76.1C124.5 77.6 124.5 79.1 124.5 80.6C124.5 89.4 124.5 98.1 124.5 106.9C124.5 107.6 124.3 108 123.7 108.4C117.8 111.8 111.9 115.2 106 118.6C105.6 118.8 105.3 119 104.8 118.7C101.4 116.7 98.1002 114.8 94.7002 112.8C94.5002 112.7 94.4002 112.6 94.2002 112.5Z" fill="#E44621"/>
<path d="M65.7 88.5C67.6 89.6 69.4 90.6 71.1 91.6C78.4 95.8 85.8 100 93.1 104.3C93.6 104.6 94 104.6 94.5 104.3C100 101.1 105.6 97.9 111.1 94.6C111.4 94.4 111.7 94 111.8 93.6C112.2 92.3 113.3 91.5 114.6 91.8C115.8 92 116.6 93.3 116.4 94.5C116.1 95.8 115 96.7 113.7 96.4C112.9 96.2 112.3 96.4 111.7 96.8C103 101.8 94.2 106.9 85.5 111.9C85 112.2 84.7 112.3 84.1 112C78.1 108.5 72.1 105.1 66.1 101.6C65.8 101.4 65.6 101.1 65.5 100.8C65.5 96.8 65.5 92.9 65.5 88.9C65.5 88.8 65.6 88.7 65.7 88.5Z" fill="#E44621"/>
</svg>
