<svg width="100" height="100" viewBox="0 0 100 100" fill="none" xmlns="http://www.w3.org/2000/svg">
    <path d="M52.6004 26C52.3004 25.8 52.1004 25.7 51.8004 25.5C49.8004 24.3 47.8004 23.2 45.9004 22C45.4004 21.7 45.1004 21.7 44.6004 22C40.7004 24.3 36.9004 26.5 33.0004 28.7C32.5004 29 32.4004 29.3 32.4004 29.8C32.4004 36.6 32.4004 43.3 32.4004 50.1C32.4004 50.4 32.2004 50.7 32.1004 50.9C31.5004 51.6 31.5004 52.6 32.1004 53.2C32.7004 53.8 33.7004 53.8 34.3004 53.2C34.9004 52.5 35.0004 51.5 34.3004 50.9C34.0004 50.6 33.9004 50.4 33.9004 50C33.9004 45.8 33.9004 41.6 33.9004 37.4C33.9004 36.9 34.1004 36.6 34.5004 36.4C39.2004 33.7 43.8004 31 48.5004 28.3C49.8004 27.6 51.1004 26.9 52.6004 26ZM71.6004 42C71.6004 41.9 71.7004 41.8 71.7004 41.8C71.7004 39.2 71.7004 36.5 71.7004 33.9C71.7004 33.7 71.5004 33.4 71.3004 33.3C67.4004 31 63.4004 28.7 59.5004 26.5C59.2004 26.3 58.9004 26.3 58.6004 26.5C53.1004 29.7 47.5004 32.9 42.0004 36C41.2004 36.5 40.4004 37.1 39.3004 36.8C38.6004 36.6 37.9004 37.4 37.8004 38.2C37.8004 39 38.3004 39.7 39.1004 39.9C39.8004 40 40.7004 39.5 40.8004 38.8C40.9004 38.3 41.2004 38.1 41.5004 37.9C45.1004 35.8 48.7004 33.8 52.2004 31.7C52.7004 31.4 53.0004 31.5 53.4004 31.7C58.3004 34.5 63.1004 37.3 68.0004 40.1C69.2004 40.6 70.4004 41.3 71.6004 42ZM29.3004 34.5C29.1004 34.6 29.0004 34.6 28.9004 34.6C26.7004 35.9 24.4004 37.2 22.2004 38.5C22.0004 38.6 21.9004 38.9 21.9004 39.1C21.9004 43.7 21.9004 48.3 21.9004 53C21.9004 53.3 22.0004 53.5 22.3004 53.7C23.2004 54.2 24.0004 54.7 24.8004 55.2C29.9004 58.1 35.0004 61.1 40.1004 64C40.3004 64.1 40.5004 64.4 40.6004 64.6C40.8004 65.4 41.6004 66 42.4004 65.9C43.3004 65.7 43.8004 64.8 43.6004 64C43.4004 63.2 42.5004 62.6 41.7004 62.9C41.3004 63.1 41.0004 62.9 40.6004 62.7C37.0004 60.6 33.3004 58.5 29.7004 56.4C29.3004 56.2 29.2004 56 29.2004 55.6C29.2004 49.9 29.2004 44.2 29.2004 38.5C29.3004 37.2 29.3004 35.9 29.3004 34.5ZM67.3004 66.4C67.5004 66.4 67.5004 66.4 67.6004 66.3C69.9004 65 72.1004 63.7 74.4004 62.3C74.5004 62.2 74.6004 61.9 74.6004 61.8C74.6004 57.2 74.6004 52.6 74.6004 48.1C74.6004 47.6 74.4004 47.4 74.1004 47.2C68.2004 43.8 62.4004 40.4 56.6004 37C56.2004 36.8 56.0004 36.6 55.9004 36.1C55.7004 35.3 54.8004 34.8 54.0004 35C53.1004 35.2 52.7004 36 52.9004 36.9C53.1004 37.8 53.9004 38.2 54.8004 38C55.2004 37.9 55.5004 38 55.8004 38.1C59.4004 40.2 63.1004 42.3 66.7004 44.3C67.1004 44.5 67.3004 44.8 67.3004 45.3C67.3004 52 67.3004 58.7 67.4004 65.5C67.3004 65.9 67.3004 66.1 67.3004 66.4ZM43.9004 75C44.0004 75.1 44.1004 75.1 44.2004 75.2C46.4004 76.5 48.7004 77.8 50.9004 79.1C51.2004 79.3 51.5004 79.2 51.7004 79C55.6004 76.7 59.5004 74.4 63.4004 72.2C63.8004 72 64.0004 71.7 64.0004 71.2C64.0004 65.4 64.0004 59.6 64.0004 53.7C64.0004 52.7 64.0004 51.7 64.0004 50.7C64.0004 50.5 64.1004 50.2 64.3004 50C65.0004 49.3 65.1004 48.4 64.5004 47.7C63.9004 47 62.9004 47 62.2004 47.7C61.6004 48.3 61.6004 49.3 62.2004 50C62.4004 50.2 62.5004 50.5 62.5004 50.8C62.5004 51.8 62.5004 52.7 62.5004 53.7C62.5004 57 62.5004 60.4 62.5004 63.7C62.5004 63.9 62.3004 64.2 62.1004 64.4C58.0004 66.8 54.0004 69.2 49.9004 71.5C48.0004 72.6 46.0004 73.8 43.9004 75ZM25.0004 59C25.0004 59.1 24.9004 59.2 24.9004 59.3C24.9004 61.9 24.9004 64.6 24.9004 67.2C24.9004 67.4 25.1004 67.6 25.3004 67.7C29.3004 70 33.3004 72.3 37.2004 74.6C37.6004 74.8 37.8004 74.7 38.1004 74.6C43.9004 71.3 49.7004 67.9 55.5004 64.6C55.9004 64.3 56.3004 64.2 56.9004 64.3C57.8004 64.5 58.5004 64 58.7004 63.1C58.9004 62.3 58.3004 61.4 57.5004 61.3C56.6004 61.1 55.9004 61.6 55.6004 62.5C55.5004 62.8 55.3004 63 55.1004 63.2C51.4004 65.4 47.7004 67.5 44.1004 69.6C43.8004 69.8 43.5004 69.8 43.2004 69.6C38.3004 66.8 33.4004 64 28.6004 61.2C27.4004 60.4 26.2004 59.7 25.0004 59Z" fill="#E44621"/>
    <path d="M52.6008 26C51.2008 26.8 49.8008 27.6 48.4008 28.4C43.7008 31.1 39.1008 33.8 34.4008 36.5C34.0008 36.7 33.8008 37 33.8008 37.5C33.8008 41.7 33.8008 45.9 33.8008 50.1C33.8008 50.5 33.9008 50.8 34.2008 51C34.9008 51.6 34.9008 52.6 34.2008 53.3C33.6008 53.9 32.6008 53.9 32.0008 53.3C31.4008 52.7 31.4008 51.7 32.0008 51C32.2008 50.8 32.3008 50.5 32.3008 50.2C32.3008 43.4 32.3008 36.7 32.3008 29.9C32.3008 29.4 32.4008 29.1 32.9008 28.8C36.8008 26.6 40.6008 24.4 44.5008 22.1C45.0008 21.8 45.3008 21.8 45.8008 22.1C47.8008 23.3 49.8008 24.4 51.7008 25.6C52.0008 25.7 52.3008 25.8 52.6008 26Z" fill="#E44621"/>
    <path d="M71.6005 42C70.4005 41.3 69.3005 40.7 68.1005 40C63.2005 37.2 58.3006 34.4 53.5006 31.6C53.1006 31.3 52.7006 31.3 52.3006 31.6C48.7006 33.7 45.2005 35.7 41.6005 37.8C41.2005 38 40.9006 38.2 40.9006 38.7C40.8006 39.4 39.9006 39.9 39.2006 39.8C38.4006 39.7 37.8006 38.9 37.9006 38.1C37.9006 37.3 38.6006 36.6 39.4006 36.7C40.5006 36.9 41.2005 36.3 42.1005 35.9C47.6005 32.7 53.2006 29.5 58.7006 26.4C59.0006 26.2 59.3005 26.2 59.6005 26.4C63.5005 28.7 67.5006 30.9 71.4006 33.2C71.6006 33.3 71.8006 33.6 71.8006 33.8C71.8006 36.4 71.8006 39.1 71.8006 41.7C71.6006 41.8 71.6005 41.8 71.6005 42Z" fill="#E44621"/>
    <path d="M29.3 34.5C29.3 35.9 29.3 37.2 29.3 38.5C29.3 44.2 29.3 49.9 29.3 55.6C29.3 56 29.4 56.2 29.8 56.4C33.4 58.5 37.1 60.6 40.7 62.7C41 62.9 41.3 63 41.8 62.9C42.6 62.6 43.5 63.2 43.7 64C43.9 64.9 43.4 65.7 42.5 65.9C41.7 66.1 40.9 65.5 40.7 64.6C40.6 64.4 40.4 64.1 40.2 64C35.1 61 30 58.1 24.9 55.2C24.1 54.7 23.2 54.2 22.4 53.7C22.1 53.5 22 53.3 22 53C22 48.4 22 43.8 22 39.1C22 38.9 22.1 38.6 22.3 38.5C24.5 37.2 26.8 35.9 29 34.6C29 34.6 29.1 34.6 29.3 34.5Z" fill="#E44621"/>
    <path d="M67.3005 66.4C67.3005 66.1 67.3005 65.9 67.3005 65.6C67.3005 58.9 67.2005 52.2 67.2005 45.4C67.2005 44.9 67.1005 44.6 66.6005 44.4C63.0005 42.3 59.3005 40.3 55.7005 38.2C55.4005 38 55.1005 37.9 54.7005 38.1C53.8005 38.4 53.1005 37.9 52.8005 37C52.6005 36.1 53.0005 35.3 53.9005 35.1C54.7005 34.9 55.6005 35.4 55.8005 36.2C55.9005 36.7 56.1005 36.9 56.5005 37.1C62.3005 40.5 68.2005 43.9 74.0005 47.3C74.4005 47.5 74.5005 47.8 74.5005 48.2C74.5005 52.8 74.5005 57.4 74.5005 61.9C74.5005 62.1 74.4005 62.4 74.3005 62.4C72.0005 63.7 69.8005 65 67.5005 66.4C67.5005 66.4 67.5005 66.4 67.3005 66.4Z" fill="#E44621"/>
    <path d="M43.9004 75C46.0004 73.8 48.0004 72.6 50.0004 71.5C54.1004 69.1 58.1004 66.8 62.2004 64.4C62.4004 64.3 62.6004 64 62.6004 63.7C62.6004 60.4 62.6004 57 62.6004 53.7C62.6004 52.7 62.6004 51.8 62.6004 50.8C62.6004 50.5 62.5004 50.2 62.3004 50C61.7004 49.3 61.6004 48.4 62.3004 47.7C63.0004 47.1 64.0004 47.1 64.6004 47.7C65.2004 48.4 65.1004 49.3 64.4004 50C64.2004 50.2 64.1004 50.4 64.1004 50.7C64.1004 51.7 64.1004 52.7 64.1004 53.7C64.1004 59.5 64.1004 65.3 64.1004 71.2C64.1004 71.7 64.0004 71.9 63.5004 72.2C59.6004 74.5 55.7004 76.7 51.8004 79C51.5004 79.2 51.3004 79.3 51.0004 79.1C48.8004 77.8 46.5004 76.5 44.3004 75.2C44.2004 75.1 44.1004 75.1 43.9004 75Z" fill="#E44621"/>
    <path d="M25.0004 59C26.2004 59.7 27.4004 60.4 28.6004 61.1C33.5004 63.9 38.4004 66.7 43.2004 69.5C43.5004 69.7 43.8004 69.7 44.1004 69.5C47.8004 67.3 51.5004 65.2 55.1004 63.1C55.3004 63 55.5004 62.7 55.6004 62.4C55.8004 61.5 56.6004 61 57.5004 61.2C58.3004 61.4 58.9004 62.2 58.7004 63C58.5004 63.9 57.7004 64.5 56.9004 64.2C56.4004 64.1 56.0004 64.2 55.5004 64.5C49.7004 67.9 43.9004 71.2 38.1004 74.5C37.8004 74.7 37.5004 74.8 37.2004 74.5C33.2004 72.2 29.2004 69.9 25.3004 67.6C25.1004 67.5 24.9004 67.2 24.9004 67.1C24.9004 64.5 24.9004 61.8 24.9004 59.2C24.9004 59.2 25.0004 59.2 25.0004 59Z" fill="#E44621"/>
</svg>
